<?xml version="1.0" encoding="UTF-8"?> <svg xmlns="http://www.w3.org/2000/svg" width="139.667" height="20.95" viewBox="0 0 139.667 20.95"><defs><style>.a{fill:#72fee3;fill-rule:evenodd;}</style></defs><path class="a" d="M8.017.079.211,1.828v.315L2.354,3.989V17.728L0,20.184v.295H10.657v-.295l-2.43-2.477V4.894A3.887,3.887,0,0,1,9.261,4a2.808,2.808,0,0,1,1.511-.4,3.4,3.4,0,0,1,1.387.274,4.47,4.47,0,0,1,1.129.718,6.927,6.927,0,0,1,.919.973q.411.531.775,1.022h.305L16.3.295A3.334,3.334,0,0,0,15.469.06,5.994,5.994,0,0,0,14.618,0a6.083,6.083,0,0,0-1.856.3,8.6,8.6,0,0,0-1.837.836A8.46,8.46,0,0,0,9.337,2.369a5.928,5.928,0,0,0-1.11,1.464V.295ZM27.839,1.356a2.989,2.989,0,0,1,.966,1.3,8.854,8.854,0,0,1,.575,2.261,24.506,24.506,0,0,1,.191,3.3l-6.677.413a21.375,21.375,0,0,1,.287-3.193,10.41,10.41,0,0,1,.689-2.418,4.13,4.13,0,0,1,1.09-1.533,2.27,2.27,0,0,1,1.492-.54,2.338,2.338,0,0,1,1.387.413ZM34.623,15.84a6.389,6.389,0,0,1-.985.707,8.357,8.357,0,0,1-1.254.6,8.976,8.976,0,0,1-1.483.423,8.53,8.53,0,0,1-1.656.157,5.575,5.575,0,0,1-4.611-2.084,9.759,9.759,0,0,1-1.779-5.915V9.453a1.81,1.81,0,0,1,.02-.255H35.368a10.8,10.8,0,0,0-.574-3.547,8.413,8.413,0,0,0-1.684-2.9A7.982,7.982,0,0,0,30.4.8,8.818,8.818,0,0,0,26.759.079,10.035,10.035,0,0,0,22.75.865a9.081,9.081,0,0,0-3.138,2.211A10.1,10.1,0,0,0,17.575,6.5a12.743,12.743,0,0,0-.727,4.393,12.014,12.014,0,0,0,.66,4.068,9.175,9.175,0,0,0,1.884,3.174A8.61,8.61,0,0,0,22.348,20.2a9.631,9.631,0,0,0,3.855.747,11.535,11.535,0,0,0,2.87-.334,8.874,8.874,0,0,0,4.3-2.506A12.166,12.166,0,0,0,34.909,16.1ZM41.329,20.7a3.171,3.171,0,0,0,1.052-.678,3.052,3.052,0,0,0,.689-1.041,3.49,3.49,0,0,0,.25-1.336,3.362,3.362,0,0,0-.25-1.307,3.156,3.156,0,0,0-1.741-1.74,3.5,3.5,0,0,0-1.358-.255,3.582,3.582,0,0,0-1.34.245,3.093,3.093,0,0,0-1.052.688,3.181,3.181,0,0,0-.689,1.052,3.459,3.459,0,0,0-.248,1.317,3.511,3.511,0,0,0,.248,1.336,3,3,0,0,0,.7,1.041,3.31,3.31,0,0,0,1.052.678,3.5,3.5,0,0,0,1.33.245,3.628,3.628,0,0,0,1.358-.245Zm0-14.268a3.173,3.173,0,0,0,1.052-.678,3.054,3.054,0,0,0,.689-1.041,3.49,3.49,0,0,0,.25-1.336,3.362,3.362,0,0,0-.25-1.307,3.2,3.2,0,0,0-.689-1.043,3.219,3.219,0,0,0-1.052-.7A3.5,3.5,0,0,0,39.971.079a3.582,3.582,0,0,0-1.34.245,3.093,3.093,0,0,0-1.052.688,3.181,3.181,0,0,0-.689,1.052,3.459,3.459,0,0,0-.248,1.317,3.512,3.512,0,0,0,.248,1.336,3,3,0,0,0,.7,1.041,3.312,3.312,0,0,0,1.052.678,3.484,3.484,0,0,0,1.33.245,3.607,3.607,0,0,0,1.358-.245Zm21.248,9.4a6.534,6.534,0,0,1-1.062.767,7.419,7.419,0,0,1-1.311.6,9.68,9.68,0,0,1-1.483.382,8.759,8.759,0,0,1-1.541.138,5.586,5.586,0,0,1-2.573-.58,5.437,5.437,0,0,1-1.941-1.68,7.95,7.95,0,0,1-1.225-2.693,14.189,14.189,0,0,1-.42-3.616,17.752,17.752,0,0,1,.3-3.39,9.075,9.075,0,0,1,.889-2.614,4.8,4.8,0,0,1,1.454-1.69A3.655,3.655,0,0,1,55.67.826a3.341,3.341,0,0,1,.66.069l.43.089A16.638,16.638,0,0,1,58.7,3.626q.946,1.562,1.961,3.429h.382l.9-5.856A11.943,11.943,0,0,0,60.731.806q-.718-.2-1.55-.354T57.459.187A14.379,14.379,0,0,0,55.727.079a11.818,11.818,0,0,0-4.381.786,9.886,9.886,0,0,0-5.683,5.66,11.85,11.85,0,0,0-.8,4.443,11.819,11.819,0,0,0,.68,4.107,9.093,9.093,0,0,0,1.913,3.154,8.427,8.427,0,0,0,2.936,2.014,10.749,10.749,0,0,0,8.973-.6A10.215,10.215,0,0,0,62.845,16.1ZM74.957,1.356a2.988,2.988,0,0,1,.966,1.3A8.809,8.809,0,0,1,76.5,4.914a24.318,24.318,0,0,1,.192,3.3l-6.677.413A21.238,21.238,0,0,1,70.3,5.435a10.416,10.416,0,0,1,.689-2.418,4.13,4.13,0,0,1,1.09-1.533A2.27,2.27,0,0,1,73.57.944a2.34,2.34,0,0,1,1.387.413ZM81.739,15.84a6.282,6.282,0,0,1-.985.707,8.3,8.3,0,0,1-1.253.6,9,9,0,0,1-1.483.423,8.538,8.538,0,0,1-1.656.157,5.574,5.574,0,0,1-4.611-2.084,9.751,9.751,0,0,1-1.779-5.915V9.453a1.989,1.989,0,0,1,.019-.255H82.486a10.8,10.8,0,0,0-.574-3.547,8.431,8.431,0,0,0-1.684-2.9A7.976,7.976,0,0,0,77.52.8,8.815,8.815,0,0,0,73.875.079a10.029,10.029,0,0,0-4.007.786A9.081,9.081,0,0,0,66.73,3.076,10.1,10.1,0,0,0,64.692,6.5a12.743,12.743,0,0,0-.727,4.393,12.014,12.014,0,0,0,.66,4.068A9.159,9.159,0,0,0,66.51,18.13,8.589,8.589,0,0,0,69.466,20.2a9.632,9.632,0,0,0,3.855.747,11.541,11.541,0,0,0,2.87-.334,8.875,8.875,0,0,0,4.3-2.506A12.092,12.092,0,0,0,82.026,16.1ZM95.152,1.356a2.989,2.989,0,0,1,.966,1.3,8.855,8.855,0,0,1,.575,2.261,24.508,24.508,0,0,1,.19,3.3l-6.677.413a21.221,21.221,0,0,1,.287-3.193,10.411,10.411,0,0,1,.689-2.418,4.129,4.129,0,0,1,1.091-1.533,2.269,2.269,0,0,1,1.492-.54,2.34,2.34,0,0,1,1.387.413Zm6.782,14.484a6.289,6.289,0,0,1-.985.707,8.29,8.29,0,0,1-1.253.6,8.976,8.976,0,0,1-1.483.423,8.538,8.538,0,0,1-1.656.157,5.574,5.574,0,0,1-4.611-2.084,9.751,9.751,0,0,1-1.779-5.915V9.453a1.969,1.969,0,0,1,.019-.255h12.494a10.8,10.8,0,0,0-.574-3.547,8.429,8.429,0,0,0-1.684-2.9A7.978,7.978,0,0,0,97.715.8,8.809,8.809,0,0,0,94.071.079a10.034,10.034,0,0,0-4.008.786,9.08,9.08,0,0,0-3.138,2.211A10.1,10.1,0,0,0,84.887,6.5a12.74,12.74,0,0,0-.727,4.393,12.014,12.014,0,0,0,.66,4.068A9.16,9.16,0,0,0,86.7,18.13,8.59,8.59,0,0,0,89.661,20.2a9.632,9.632,0,0,0,3.855.747,11.534,11.534,0,0,0,2.87-.334,8.876,8.876,0,0,0,4.3-2.506,12.1,12.1,0,0,0,1.539-2.014Zm9.444,4.638h1.759L120.082,3.4,122.437.884V.589h-5.148V.884l2.047,2.5-4.438,11.1-4-11.163L112.87.9V.589H102.308V.9l2.086,2.516Zm20.76-19.122a2.98,2.98,0,0,1,.967,1.3,8.814,8.814,0,0,1,.574,2.261,24.5,24.5,0,0,1,.192,3.3l-6.678.413a21.422,21.422,0,0,1,.289-3.193,10.417,10.417,0,0,1,.688-2.418,4.109,4.109,0,0,1,1.091-1.533,2.271,2.271,0,0,1,1.492-.54,2.329,2.329,0,0,1,1.386.413Zm6.783,14.484a6.264,6.264,0,0,1-.985.707,8.328,8.328,0,0,1-1.254.6,8.985,8.985,0,0,1-1.483.423,8.531,8.531,0,0,1-1.655.157,5.574,5.574,0,0,1-4.61-2.084,9.744,9.744,0,0,1-1.78-5.915V9.453a1.85,1.85,0,0,1,.019-.255h12.493a10.777,10.777,0,0,0-.574-3.547,8.4,8.4,0,0,0-1.683-2.9A7.978,7.978,0,0,0,134.7.8a8.819,8.819,0,0,0-3.645-.718,10.039,10.039,0,0,0-4.008.786,9.068,9.068,0,0,0-3.137,2.211A10.077,10.077,0,0,0,121.875,6.5a12.735,12.735,0,0,0-.727,4.393,11.991,11.991,0,0,0,.661,4.068,9.135,9.135,0,0,0,1.884,3.174,8.581,8.581,0,0,0,2.955,2.073,9.633,9.633,0,0,0,3.855.747,11.55,11.55,0,0,0,2.871-.334,8.881,8.881,0,0,0,4.294-2.506,12.049,12.049,0,0,0,1.541-2.014Z"></path></svg> 